<?xml version="1.0" encoding="UTF-8"?>
<svg xmlns="http://www.w3.org/2000/svg" xmlns:xlink="http://www.w3.org/1999/xlink" width="854" height="480" viewBox="0 0 854 480">
<defs>
<g>
<g id="glyph-0-0">
<path d="M 3.78125 0.222656 C 3.289062 0.222656 2.828125 0.160156 2.402344 0.0351562 C 1.972656 -0.0859375 1.613281 -0.230469 1.316406 -0.398438 L 0.921875 0 L 0.4375 0 L 0.363281 -2.921875 L 0.855469 -2.921875 C 0.964844 -2.644531 1.105469 -2.351562 1.277344 -2.042969 C 1.445312 -1.734375 1.644531 -1.457031 1.867188 -1.214844 C 2.101562 -0.960938 2.359375 -0.753906 2.644531 -0.59375 C 2.933594 -0.433594 3.269531 -0.351562 3.652344 -0.351562 C 4.167969 -0.351562 4.5625 -0.480469 4.839844 -0.730469 C 5.113281 -0.984375 5.253906 -1.304688 5.253906 -1.6875 C 5.253906 -2.003906 5.136719 -2.269531 4.902344 -2.484375 C 4.667969 -2.699219 4.304688 -2.882812 3.816406 -3.039062 C 3.496094 -3.140625 3.203125 -3.238281 2.9375 -3.324219 C 2.667969 -3.414062 2.417969 -3.503906 2.183594 -3.59375 C 1.640625 -3.8125 1.234375 -4.121094 0.972656 -4.523438 C 0.707031 -4.925781 0.574219 -5.378906 0.574219 -5.875 C 0.574219 -6.191406 0.644531 -6.496094 0.78125 -6.785156 C 0.917969 -7.078125 1.117188 -7.339844 1.378906 -7.570312 C 1.628906 -7.785156 1.949219 -7.964844 2.339844 -8.101562 C 2.734375 -8.238281 3.15625 -8.304688 3.617188 -8.304688 C 4.066406 -8.304688 4.484375 -8.242188 4.875 -8.117188 C 5.265625 -7.992188 5.574219 -7.867188 5.800781 -7.742188 L 6.148438 -8.082031 L 6.640625 -8.082031 L 6.6875 -5.328125 L 6.199219 -5.328125 C 6.085938 -5.625 5.949219 -5.925781 5.796875 -6.238281 C 5.640625 -6.546875 5.480469 -6.804688 5.308594 -7.011719 C 5.125 -7.230469 4.910156 -7.40625 4.664062 -7.539062 C 4.421875 -7.671875 4.136719 -7.734375 3.8125 -7.734375 C 3.402344 -7.734375 3.066406 -7.621094 2.804688 -7.386719 C 2.546875 -7.15625 2.414062 -6.867188 2.414062 -6.527344 C 2.414062 -6.203125 2.527344 -5.9375 2.753906 -5.734375 C 2.980469 -5.527344 3.332031 -5.347656 3.8125 -5.191406 C 4.09375 -5.097656 4.378906 -5 4.671875 -4.90625 C 4.964844 -4.8125 5.222656 -4.71875 5.453125 -4.632812 C 6.003906 -4.417969 6.421875 -4.125 6.707031 -3.75 C 6.996094 -3.375 7.136719 -2.910156 7.136719 -2.355469 C 7.136719 -2.007812 7.054688 -1.667969 6.894531 -1.339844 C 6.730469 -1.015625 6.507812 -0.742188 6.230469 -0.523438 C 5.929688 -0.285156 5.578125 -0.101562 5.179688 0.0273438 C 4.78125 0.15625 4.3125 0.222656 3.78125 0.222656 Z "/>
</g>
<g id="glyph-0-1">
<path d="M 7.734375 0 L 4.3125 0 L 4.3125 -0.414062 C 4.386719 -0.421875 4.476562 -0.433594 4.578125 -0.445312 C 4.683594 -0.457031 4.757812 -0.476562 4.808594 -0.5 C 4.886719 -0.542969 4.945312 -0.605469 4.976562 -0.683594 C 5.007812 -0.761719 5.023438 -0.882812 5.023438 -1.035156 L 5.023438 -3.703125 C 5.023438 -4.09375 4.953125 -4.386719 4.804688 -4.578125 C 4.660156 -4.773438 4.449219 -4.871094 4.179688 -4.871094 C 4.03125 -4.871094 3.886719 -4.847656 3.757812 -4.800781 C 3.625 -4.757812 3.496094 -4.691406 3.371094 -4.601562 C 3.261719 -4.527344 3.175781 -4.449219 3.109375 -4.371094 C 3.042969 -4.289062 2.984375 -4.21875 2.9375 -4.160156 L 2.9375 -1.097656 C 2.9375 -0.957031 2.957031 -0.847656 2.992188 -0.765625 C 3.023438 -0.683594 3.089844 -0.617188 3.183594 -0.5625 C 3.242188 -0.53125 3.316406 -0.5 3.410156 -0.472656 C 3.503906 -0.445312 3.59375 -0.425781 3.679688 -0.414062 L 3.679688 0 L 0.203125 0 L 0.203125 -0.414062 C 0.304688 -0.421875 0.402344 -0.433594 0.496094 -0.445312 C 0.589844 -0.457031 0.671875 -0.476562 0.742188 -0.5 C 0.867188 -0.546875 0.949219 -0.613281 0.992188 -0.699219 C 1.039062 -0.785156 1.058594 -0.894531 1.058594 -1.035156 L 1.058594 -7.386719 C 1.058594 -7.511719 1.03125 -7.640625 0.972656 -7.777344 C 0.917969 -7.914062 0.835938 -8.015625 0.734375 -8.082031 C 0.660156 -8.132812 0.546875 -8.171875 0.40625 -8.199219 C 0.261719 -8.230469 0.132812 -8.246094 0.015625 -8.253906 L 0.015625 -8.671875 L 2.855469 -8.820312 L 2.9375 -8.726562 L 2.9375 -4.808594 L 2.960938 -4.808594 C 3.105469 -4.9375 3.234375 -5.054688 3.351562 -5.160156 C 3.46875 -5.261719 3.609375 -5.367188 3.777344 -5.472656 C 3.914062 -5.566406 4.097656 -5.644531 4.324219 -5.707031 C 4.550781 -5.773438 4.792969 -5.804688 5.054688 -5.804688 C 5.667969 -5.804688 6.132812 -5.628906 6.441406 -5.273438 C 6.75 -4.921875 6.90625 -4.457031 6.90625 -3.878906 L 6.90625 -1.089844 C 6.90625 -0.949219 6.925781 -0.835938 6.96875 -0.75 C 7.007812 -0.667969 7.085938 -0.601562 7.199219 -0.550781 C 7.269531 -0.523438 7.34375 -0.496094 7.429688 -0.472656 C 7.511719 -0.449219 7.613281 -0.429688 7.734375 -0.414062 Z "/>
</g>
<g id="glyph-0-2">
<path d="M 6.148438 -4.980469 C 6.425781 -4.71875 6.640625 -4.402344 6.789062 -4.039062 C 6.9375 -3.675781 7.011719 -3.28125 7.011719 -2.855469 C 7.011719 -2.433594 6.9375 -2.035156 6.792969 -1.660156 C 6.648438 -1.285156 6.433594 -0.964844 6.152344 -0.699219 C 5.851562 -0.414062 5.496094 -0.199219 5.078125 -0.046875 C 4.664062 0.105469 4.1875 0.183594 3.652344 0.183594 C 3.1875 0.183594 2.761719 0.117188 2.371094 -0.015625 C 1.984375 -0.148438 1.640625 -0.347656 1.339844 -0.617188 C 1.050781 -0.871094 0.820312 -1.183594 0.65625 -1.558594 C 0.488281 -1.933594 0.40625 -2.351562 0.40625 -2.8125 C 0.40625 -3.269531 0.476562 -3.675781 0.625 -4.03125 C 0.769531 -4.386719 0.988281 -4.703125 1.28125 -4.980469 C 1.5625 -5.246094 1.910156 -5.449219 2.320312 -5.597656 C 2.734375 -5.742188 3.195312 -5.816406 3.703125 -5.816406 C 4.234375 -5.816406 4.703125 -5.742188 5.105469 -5.597656 C 5.511719 -5.449219 5.859375 -5.246094 6.148438 -4.980469 M 4.6875 -1.03125 C 4.773438 -1.242188 4.832031 -1.503906 4.875 -1.804688 C 4.914062 -2.109375 4.933594 -2.460938 4.933594 -2.867188 C 4.933594 -3.132812 4.914062 -3.433594 4.875 -3.777344 C 4.839844 -4.117188 4.78125 -4.386719 4.707031 -4.585938 C 4.613281 -4.824219 4.488281 -5.011719 4.328125 -5.148438 C 4.164062 -5.285156 3.960938 -5.355469 3.714844 -5.355469 C 3.445312 -5.355469 3.230469 -5.28125 3.066406 -5.132812 C 2.90625 -4.984375 2.78125 -4.792969 2.695312 -4.558594 C 2.613281 -4.339844 2.558594 -4.085938 2.53125 -3.796875 C 2.5 -3.507812 2.484375 -3.203125 2.484375 -2.886719 C 2.484375 -2.472656 2.496094 -2.132812 2.523438 -1.859375 C 2.550781 -1.589844 2.613281 -1.316406 2.71875 -1.042969 C 2.804688 -0.808594 2.929688 -0.621094 3.09375 -0.484375 C 3.257812 -0.347656 3.464844 -0.277344 3.714844 -0.277344 C 3.941406 -0.277344 4.136719 -0.34375 4.300781 -0.46875 C 4.464844 -0.597656 4.59375 -0.785156 4.6875 -1.03125 Z "/>
</g>
<g id="glyph-0-3">
<path d="M 3.582031 0.183594 C 3.054688 0.183594 2.589844 0.105469 2.183594 -0.046875 C 1.78125 -0.203125 1.445312 -0.410156 1.183594 -0.679688 C 0.921875 -0.949219 0.726562 -1.265625 0.597656 -1.636719 C 0.46875 -2.003906 0.40625 -2.402344 0.40625 -2.835938 C 0.40625 -3.230469 0.484375 -3.609375 0.640625 -3.964844 C 0.796875 -4.320312 1.011719 -4.636719 1.28125 -4.90625 C 1.558594 -5.183594 1.902344 -5.402344 2.316406 -5.570312 C 2.726562 -5.734375 3.183594 -5.816406 3.679688 -5.816406 C 4.378906 -5.816406 4.929688 -5.683594 5.335938 -5.421875 C 5.742188 -5.15625 5.945312 -4.800781 5.945312 -4.351562 C 5.945312 -4.078125 5.875 -3.859375 5.730469 -3.691406 C 5.585938 -3.523438 5.335938 -3.441406 4.984375 -3.441406 C 4.699219 -3.441406 4.460938 -3.507812 4.269531 -3.644531 C 4.078125 -3.78125 3.980469 -3.960938 3.980469 -4.179688 C 3.980469 -4.367188 4.011719 -4.550781 4.074219 -4.734375 C 4.132812 -4.917969 4.171875 -5.054688 4.179688 -5.148438 C 4.140625 -5.21875 4.085938 -5.269531 4.023438 -5.304688 C 3.957031 -5.34375 3.855469 -5.359375 3.71875 -5.359375 C 3.550781 -5.359375 3.394531 -5.320312 3.253906 -5.242188 C 3.113281 -5.160156 2.980469 -5.019531 2.859375 -4.820312 C 2.742188 -4.628906 2.648438 -4.375 2.578125 -4.054688 C 2.507812 -3.738281 2.472656 -3.351562 2.472656 -2.90625 C 2.472656 -2.230469 2.632812 -1.683594 2.949219 -1.269531 C 3.265625 -0.855469 3.644531 -0.648438 4.085938 -0.648438 C 4.507812 -0.648438 4.839844 -0.742188 5.089844 -0.929688 C 5.339844 -1.121094 5.558594 -1.386719 5.753906 -1.730469 L 6.179688 -1.4375 C 6.0625 -1.203125 5.921875 -0.992188 5.757812 -0.800781 C 5.597656 -0.609375 5.398438 -0.4375 5.171875 -0.289062 C 4.933594 -0.136719 4.691406 -0.015625 4.445312 0.0625 C 4.195312 0.140625 3.910156 0.183594 3.582031 0.183594 Z "/>
</g>
<g id="glyph-0-4">
<path d="M 7.640625 0 L 4.953125 0 C 4.625 -0.578125 4.324219 -1.070312 4.050781 -1.472656 C 3.777344 -1.878906 3.519531 -2.253906 3.273438 -2.597656 L 2.9375 -2.3125 L 2.9375 -1.070312 C 2.9375 -0.933594 2.960938 -0.820312 3 -0.734375 C 3.039062 -0.648438 3.117188 -0.582031 3.230469 -0.542969 C 3.296875 -0.511719 3.378906 -0.484375 3.46875 -0.460938 C 3.558594 -0.4375 3.652344 -0.421875 3.742188 -0.414062 L 3.742188 0 L 0.203125 0 L 0.203125 -0.414062 C 0.300781 -0.421875 0.394531 -0.433594 0.492188 -0.445312 C 0.585938 -0.460938 0.671875 -0.476562 0.742188 -0.5 C 0.867188 -0.542969 0.949219 -0.609375 0.992188 -0.695312 C 1.039062 -0.78125 1.058594 -0.894531 1.058594 -1.035156 L 1.058594 -7.386719 C 1.058594 -7.515625 1.03125 -7.644531 0.976562 -7.777344 C 0.921875 -7.914062 0.839844 -8.015625 0.734375 -8.082031 C 0.664062 -8.128906 0.554688 -8.167969 0.410156 -8.199219 C 0.265625 -8.226562 0.136719 -8.246094 0.015625 -8.253906 L 0.015625 -8.671875 L 2.855469 -8.820312 L 2.9375 -8.726562 L 2.9375 -2.847656 C 3.21875 -3.097656 3.535156 -3.390625 3.886719 -3.71875 C 4.238281 -4.050781 4.519531 -4.324219 4.730469 -4.539062 C 4.855469 -4.667969 4.925781 -4.765625 4.941406 -4.832031 C 4.953125 -4.898438 4.960938 -4.941406 4.960938 -4.957031 C 4.960938 -5.023438 4.898438 -5.082031 4.78125 -5.125 C 4.660156 -5.171875 4.480469 -5.210938 4.238281 -5.246094 L 4.238281 -5.652344 L 7.132812 -5.652344 L 7.132812 -5.257812 C 6.753906 -5.152344 6.464844 -5.050781 6.265625 -4.957031 C 6.066406 -4.867188 5.847656 -4.742188 5.613281 -4.585938 C 5.457031 -4.484375 5.308594 -4.375 5.160156 -4.261719 C 5.015625 -4.152344 4.847656 -4.011719 4.660156 -3.84375 C 5.03125 -3.304688 5.375 -2.804688 5.6875 -2.347656 C 6.003906 -1.886719 6.332031 -1.402344 6.679688 -0.886719 C 6.796875 -0.710938 6.941406 -0.589844 7.117188 -0.53125 C 7.289062 -0.46875 7.464844 -0.429688 7.640625 -0.414062 Z "/>
</g>
<g id="glyph-0-5">
</g>
<g id="glyph-0-6">
<path d="M 7.558594 -6.019531 L 7.125 -6.019531 C 7.015625 -6.328125 6.828125 -6.636719 6.558594 -6.953125 C 6.289062 -7.265625 6.019531 -7.453125 5.753906 -7.507812 C 5.640625 -7.535156 5.480469 -7.550781 5.277344 -7.554688 C 5.074219 -7.5625 4.90625 -7.566406 4.773438 -7.566406 L 3.601562 -7.566406 L 3.601562 -4.449219 L 4.433594 -4.449219 C 4.640625 -4.449219 4.832031 -4.472656 5 -4.523438 C 5.171875 -4.574219 5.328125 -4.667969 5.46875 -4.808594 C 5.554688 -4.894531 5.644531 -5.050781 5.734375 -5.269531 C 5.824219 -5.488281 5.878906 -5.679688 5.90625 -5.84375 L 6.339844 -5.84375 L 6.339844 -2.472656 L 5.90625 -2.472656 C 5.882812 -2.632812 5.828125 -2.832031 5.734375 -3.074219 C 5.640625 -3.316406 5.550781 -3.480469 5.46875 -3.570312 C 5.34375 -3.707031 5.195312 -3.800781 5.023438 -3.855469 C 4.851562 -3.90625 4.65625 -3.929688 4.433594 -3.929688 L 3.601562 -3.929688 L 3.601562 -1.601562 C 3.601562 -1.359375 3.617188 -1.164062 3.65625 -1.023438 C 3.691406 -0.878906 3.757812 -0.769531 3.855469 -0.695312 C 3.953125 -0.621094 4.082031 -0.574219 4.246094 -0.550781 C 4.410156 -0.53125 4.636719 -0.519531 4.921875 -0.519531 C 5.054688 -0.519531 5.214844 -0.519531 5.398438 -0.523438 C 5.585938 -0.527344 5.75 -0.539062 5.890625 -0.558594 C 6.050781 -0.578125 6.199219 -0.605469 6.335938 -0.644531 C 6.476562 -0.683594 6.578125 -0.738281 6.648438 -0.808594 C 6.832031 -0.996094 7.035156 -1.277344 7.261719 -1.660156 C 7.492188 -2.042969 7.640625 -2.328125 7.714844 -2.519531 L 8.128906 -2.519531 L 7.976562 0 L 0.394531 0 L 0.394531 -0.445312 C 0.5 -0.453125 0.644531 -0.46875 0.824219 -0.488281 C 1.007812 -0.511719 1.136719 -0.539062 1.214844 -0.570312 C 1.359375 -0.628906 1.453125 -0.707031 1.503906 -0.800781 C 1.554688 -0.894531 1.578125 -1.011719 1.578125 -1.15625 L 1.578125 -6.859375 C 1.578125 -6.996094 1.558594 -7.109375 1.515625 -7.199219 C 1.472656 -7.285156 1.371094 -7.367188 1.214844 -7.441406 C 1.113281 -7.484375 0.976562 -7.527344 0.796875 -7.566406 C 0.617188 -7.601562 0.484375 -7.628906 0.394531 -7.640625 L 0.394531 -8.082031 L 7.558594 -8.082031 Z "/>
</g>
<g id="glyph-0-7">
<path d="M 7.71875 2.53125 L 3.726562 2.53125 L 3.726562 2.109375 C 3.832031 2.101562 3.960938 2.085938 4.109375 2.070312 C 4.261719 2.054688 4.375 2.03125 4.460938 2 C 4.578125 1.960938 4.660156 1.894531 4.710938 1.792969 C 4.761719 1.695312 4.785156 1.578125 4.785156 1.441406 L 4.785156 -0.546875 L 4.738281 -0.558594 C 4.675781 -0.496094 4.589844 -0.421875 4.488281 -0.335938 C 4.382812 -0.25 4.257812 -0.171875 4.109375 -0.101562 C 3.945312 -0.0234375 3.789062 0.0390625 3.640625 0.0820312 C 3.488281 0.125 3.289062 0.148438 3.042969 0.148438 C 2.253906 0.148438 1.617188 -0.125 1.132812 -0.671875 C 0.648438 -1.21875 0.40625 -1.957031 0.40625 -2.882812 C 0.40625 -3.722656 0.695312 -4.417969 1.277344 -4.972656 C 1.855469 -5.527344 2.589844 -5.804688 3.480469 -5.804688 C 3.925781 -5.804688 4.332031 -5.753906 4.691406 -5.652344 C 5.050781 -5.554688 5.386719 -5.421875 5.699219 -5.257812 L 6.441406 -5.988281 L 6.757812 -5.914062 C 6.746094 -5.671875 6.726562 -5.363281 6.703125 -4.976562 C 6.675781 -4.589844 6.664062 -4.269531 6.664062 -4.015625 L 6.664062 1.34375 C 6.664062 1.484375 6.691406 1.605469 6.742188 1.707031 C 6.792969 1.808594 6.875 1.882812 6.988281 1.929688 C 7.074219 1.96875 7.1875 2.003906 7.332031 2.039062 C 7.476562 2.074219 7.605469 2.097656 7.71875 2.109375 L 7.71875 2.53125 M 4.785156 -1.132812 L 4.785156 -4.351562 C 4.757812 -4.445312 4.722656 -4.550781 4.675781 -4.660156 C 4.628906 -4.769531 4.558594 -4.875 4.472656 -4.980469 C 4.390625 -5.074219 4.285156 -5.152344 4.164062 -5.210938 C 4.039062 -5.273438 3.890625 -5.304688 3.714844 -5.304688 C 3.339844 -5.304688 3.03125 -5.082031 2.800781 -4.636719 C 2.566406 -4.191406 2.449219 -3.578125 2.449219 -2.796875 C 2.449219 -2.476562 2.472656 -2.195312 2.523438 -1.949219 C 2.574219 -1.707031 2.648438 -1.492188 2.746094 -1.308594 C 2.859375 -1.109375 2.996094 -0.953125 3.152344 -0.84375 C 3.3125 -0.734375 3.527344 -0.679688 3.789062 -0.679688 C 4.03125 -0.679688 4.230469 -0.71875 4.382812 -0.800781 C 4.535156 -0.882812 4.667969 -0.992188 4.785156 -1.132812 Z "/>
</g>
<g id="glyph-0-8">
<path d="M 7.757812 -0.121094 L 5.042969 0.046875 L 4.957031 -0.0351562 L 4.957031 -0.78125 L 4.921875 -0.78125 C 4.792969 -0.664062 4.667969 -0.546875 4.542969 -0.4375 C 4.421875 -0.324219 4.273438 -0.222656 4.101562 -0.132812 C 3.910156 -0.0273438 3.726562 0.046875 3.554688 0.0976562 C 3.382812 0.144531 3.128906 0.171875 2.800781 0.171875 C 2.226562 0.171875 1.789062 0 1.484375 -0.347656 C 1.179688 -0.691406 1.023438 -1.179688 1.023438 -1.8125 L 1.023438 -4.375 C 1.023438 -4.523438 0.996094 -4.644531 0.941406 -4.738281 C 0.882812 -4.828125 0.808594 -4.914062 0.714844 -4.984375 C 0.636719 -5.042969 0.539062 -5.082031 0.417969 -5.105469 C 0.296875 -5.132812 0.1875 -5.148438 0.0898438 -5.15625 L 0.0898438 -5.570312 L 2.84375 -5.71875 L 2.90625 -5.632812 L 2.90625 -1.84375 C 2.90625 -1.453125 2.980469 -1.164062 3.128906 -0.980469 C 3.28125 -0.792969 3.484375 -0.699219 3.75 -0.699219 C 4.019531 -0.699219 4.261719 -0.769531 4.476562 -0.910156 C 4.6875 -1.050781 4.847656 -1.203125 4.945312 -1.363281 L 4.945312 -4.433594 C 4.945312 -4.5625 4.921875 -4.675781 4.871094 -4.78125 C 4.820312 -4.882812 4.75 -4.964844 4.652344 -5.03125 C 4.585938 -5.074219 4.488281 -5.105469 4.359375 -5.121094 C 4.234375 -5.136719 4.101562 -5.148438 3.96875 -5.15625 L 3.96875 -5.570312 L 6.738281 -5.71875 L 6.824219 -5.632812 L 6.824219 -1.234375 C 6.824219 -1.101562 6.851562 -0.992188 6.902344 -0.898438 C 6.957031 -0.804688 7.035156 -0.726562 7.136719 -0.660156 C 7.207031 -0.617188 7.300781 -0.582031 7.417969 -0.566406 C 7.53125 -0.550781 7.644531 -0.539062 7.757812 -0.535156 Z "/>
</g>
<g id="glyph-0-9">
<path d="M 6.839844 -0.121094 C 6.675781 -0.046875 6.476562 0.0195312 6.25 0.078125 C 6.023438 0.140625 5.78125 0.171875 5.527344 0.171875 C 5.0625 0.171875 4.71875 0.101562 4.5 -0.0351562 C 4.28125 -0.175781 4.128906 -0.375 4.050781 -0.632812 L 4.015625 -0.632812 C 3.886719 -0.503906 3.761719 -0.394531 3.640625 -0.300781 C 3.523438 -0.210938 3.394531 -0.132812 3.257812 -0.0703125 C 3.078125 0.015625 2.90625 0.078125 2.742188 0.121094 C 2.574219 0.160156 2.34375 0.183594 2.046875 0.183594 C 1.605469 0.183594 1.230469 0.0507812 0.917969 -0.207031 C 0.605469 -0.46875 0.449219 -0.8125 0.449219 -1.242188 C 0.449219 -1.492188 0.484375 -1.703125 0.554688 -1.875 C 0.621094 -2.046875 0.71875 -2.199219 0.84375 -2.332031 C 0.957031 -2.457031 1.089844 -2.554688 1.242188 -2.636719 C 1.390625 -2.714844 1.554688 -2.789062 1.734375 -2.859375 C 2.074219 -2.984375 2.488281 -3.113281 2.964844 -3.25 C 3.445312 -3.382812 3.796875 -3.503906 4.015625 -3.613281 L 4.015625 -4.160156 C 4.015625 -4.253906 4.007812 -4.378906 3.992188 -4.535156 C 3.976562 -4.691406 3.945312 -4.820312 3.898438 -4.925781 C 3.84375 -5.050781 3.757812 -5.152344 3.644531 -5.234375 C 3.53125 -5.320312 3.382812 -5.359375 3.195312 -5.359375 C 3.027344 -5.359375 2.890625 -5.335938 2.777344 -5.289062 C 2.664062 -5.242188 2.574219 -5.195312 2.507812 -5.144531 C 2.515625 -5.066406 2.550781 -4.953125 2.601562 -4.796875 C 2.65625 -4.640625 2.683594 -4.492188 2.683594 -4.347656 C 2.683594 -4.28125 2.664062 -4.203125 2.632812 -4.105469 C 2.597656 -4.007812 2.546875 -3.929688 2.484375 -3.875 C 2.394531 -3.796875 2.296875 -3.738281 2.1875 -3.695312 C 2.082031 -3.65625 1.914062 -3.632812 1.6875 -3.632812 C 1.367188 -3.632812 1.128906 -3.710938 0.964844 -3.863281 C 0.800781 -4.019531 0.71875 -4.21875 0.71875 -4.464844 C 0.71875 -4.679688 0.800781 -4.871094 0.972656 -5.039062 C 1.140625 -5.207031 1.347656 -5.347656 1.589844 -5.457031 C 1.828125 -5.570312 2.105469 -5.660156 2.414062 -5.722656 C 2.726562 -5.785156 3.015625 -5.816406 3.28125 -5.816406 C 3.648438 -5.816406 3.988281 -5.792969 4.296875 -5.75 C 4.601562 -5.707031 4.878906 -5.617188 5.125 -5.480469 C 5.363281 -5.347656 5.550781 -5.15625 5.6875 -4.902344 C 5.828125 -4.648438 5.894531 -4.320312 5.894531 -3.914062 C 5.894531 -3.484375 5.886719 -2.976562 5.871094 -2.386719 C 5.851562 -1.796875 5.84375 -1.410156 5.84375 -1.226562 C 5.84375 -1.054688 5.871094 -0.917969 5.921875 -0.820312 C 5.972656 -0.722656 6.050781 -0.648438 6.15625 -0.597656 C 6.222656 -0.566406 6.324219 -0.550781 6.460938 -0.542969 C 6.601562 -0.539062 6.726562 -0.535156 6.839844 -0.535156 L 6.839844 -0.121094 M 4.015625 -3.085938 C 3.800781 -3.015625 3.589844 -2.933594 3.382812 -2.839844 C 3.171875 -2.746094 3 -2.648438 2.867188 -2.546875 C 2.726562 -2.4375 2.617188 -2.300781 2.535156 -2.136719 C 2.457031 -1.972656 2.414062 -1.777344 2.414062 -1.550781 C 2.414062 -1.253906 2.484375 -1.039062 2.617188 -0.90625 C 2.753906 -0.773438 2.921875 -0.707031 3.117188 -0.707031 C 3.328125 -0.707031 3.5 -0.75 3.636719 -0.835938 C 3.769531 -0.921875 3.890625 -1.027344 3.992188 -1.152344 Z "/>
</g>
<g id="glyph-0-10">
<path d="M 4.570312 -0.261719 C 4.324219 -0.15625 4.066406 -0.0585938 3.789062 0.0273438 C 3.511719 0.109375 3.171875 0.152344 2.773438 0.152344 C 2.183594 0.152344 1.742188 0.0078125 1.457031 -0.277344 C 1.167969 -0.566406 1.023438 -0.980469 1.023438 -1.511719 L 1.023438 -5.007812 L 0 -5.007812 L 0 -5.628906 L 1.046875 -5.628906 L 1.046875 -7.355469 L 2.894531 -7.355469 L 2.894531 -5.628906 L 4.496094 -5.628906 L 4.496094 -5.007812 L 2.90625 -5.007812 L 2.90625 -1.890625 C 2.90625 -1.445312 2.96875 -1.132812 3.089844 -0.945312 C 3.214844 -0.757812 3.4375 -0.667969 3.757812 -0.667969 C 3.859375 -0.667969 4.003906 -0.675781 4.1875 -0.6875 C 4.367188 -0.703125 4.496094 -0.722656 4.570312 -0.742188 Z "/>
</g>
<g id="glyph-0-11">
<path d="M 3.929688 0 L 0.332031 0 L 0.332031 -0.414062 C 0.429688 -0.421875 0.527344 -0.433594 0.621094 -0.445312 C 0.714844 -0.457031 0.796875 -0.476562 0.867188 -0.5 C 0.988281 -0.546875 1.074219 -0.613281 1.121094 -0.699219 C 1.171875 -0.785156 1.195312 -0.894531 1.195312 -1.035156 L 1.195312 -4.351562 C 1.195312 -4.484375 1.164062 -4.601562 1.105469 -4.703125 C 1.042969 -4.804688 0.96875 -4.882812 0.878906 -4.945312 C 0.808594 -4.992188 0.707031 -5.035156 0.566406 -5.074219 C 0.429688 -5.117188 0.300781 -5.144531 0.1875 -5.15625 L 0.1875 -5.570312 L 2.980469 -5.71875 L 3.066406 -5.632812 L 3.066406 -1.109375 C 3.066406 -0.976562 3.09375 -0.863281 3.148438 -0.773438 C 3.207031 -0.679688 3.289062 -0.609375 3.394531 -0.5625 C 3.472656 -0.53125 3.554688 -0.5 3.644531 -0.472656 C 3.738281 -0.445312 3.832031 -0.425781 3.929688 -0.414062 L 3.929688 0 M 3.097656 -7.769531 C 3.097656 -7.480469 2.988281 -7.234375 2.765625 -7.03125 C 2.542969 -6.828125 2.28125 -6.726562 1.976562 -6.726562 C 1.667969 -6.726562 1.402344 -6.828125 1.183594 -7.03125 C 0.960938 -7.234375 0.847656 -7.480469 0.847656 -7.769531 C 0.847656 -8.058594 0.960938 -8.304688 1.183594 -8.511719 C 1.402344 -8.714844 1.667969 -8.816406 1.976562 -8.820312 C 2.285156 -8.816406 2.546875 -8.714844 2.769531 -8.511719 C 2.988281 -8.304688 3.097656 -8.058594 3.097656 -7.769531 Z "/>
</g>
<g id="glyph-0-12">
<path d="M 7.851562 0 L 4.425781 0 L 4.425781 -0.414062 C 4.5 -0.421875 4.585938 -0.433594 4.6875 -0.445312 C 4.789062 -0.457031 4.867188 -0.476562 4.921875 -0.5 C 5 -0.542969 5.058594 -0.605469 5.09375 -0.683594 C 5.125 -0.761719 5.144531 -0.882812 5.144531 -1.035156 L 5.144531 -3.703125 C 5.144531 -4.089844 5.074219 -4.382812 4.929688 -4.578125 C 4.785156 -4.773438 4.578125 -4.871094 4.296875 -4.871094 C 4.144531 -4.871094 4.003906 -4.847656 3.875 -4.800781 C 3.742188 -4.757812 3.613281 -4.691406 3.488281 -4.601562 C 3.378906 -4.527344 3.289062 -4.449219 3.222656 -4.371094 C 3.15625 -4.289062 3.097656 -4.21875 3.054688 -4.160156 L 3.054688 -1.097656 C 3.054688 -0.964844 3.074219 -0.855469 3.109375 -0.765625 C 3.148438 -0.675781 3.210938 -0.609375 3.296875 -0.5625 C 3.359375 -0.53125 3.433594 -0.5 3.527344 -0.472656 C 3.617188 -0.445312 3.707031 -0.425781 3.792969 -0.414062 L 3.792969 0 L 0.332031 0 L 0.332031 -0.414062 C 0.425781 -0.421875 0.519531 -0.433594 0.617188 -0.445312 C 0.714844 -0.460938 0.796875 -0.476562 0.867188 -0.5 C 0.988281 -0.542969 1.070312 -0.609375 1.117188 -0.695312 C 1.164062 -0.78125 1.183594 -0.894531 1.183594 -1.035156 L 1.183594 -4.351562 C 1.183594 -4.46875 1.15625 -4.585938 1.09375 -4.699219 C 1.03125 -4.8125 0.953125 -4.90625 0.855469 -4.980469 C 0.785156 -5.023438 0.699219 -5.0625 0.59375 -5.09375 C 0.492188 -5.125 0.375 -5.144531 0.25 -5.15625 L 0.25 -5.570312 L 2.96875 -5.71875 L 3.054688 -5.632812 L 3.054688 -4.808594 L 3.078125 -4.808594 C 3.183594 -4.902344 3.3125 -5.015625 3.464844 -5.148438 C 3.617188 -5.28125 3.757812 -5.390625 3.886719 -5.472656 C 4.027344 -5.566406 4.210938 -5.644531 4.4375 -5.707031 C 4.664062 -5.773438 4.910156 -5.804688 5.167969 -5.804688 C 5.785156 -5.804688 6.25 -5.628906 6.558594 -5.277344 C 6.871094 -4.925781 7.023438 -4.460938 7.023438 -3.878906 L 7.023438 -1.089844 C 7.023438 -0.949219 7.042969 -0.835938 7.085938 -0.75 C 7.128906 -0.667969 7.207031 -0.601562 7.320312 -0.550781 C 7.382812 -0.527344 7.457031 -0.5 7.546875 -0.472656 C 7.632812 -0.445312 7.734375 -0.425781 7.851562 -0.414062 Z "/>
</g>
<g id="glyph-0-13">
<path d="M 2.96875 0.195312 C 2.597656 0.195312 2.238281 0.140625 1.886719 0.03125 C 1.539062 -0.078125 1.265625 -0.191406 1.070312 -0.3125 L 0.898438 0.0742188 L 0.457031 0.0742188 L 0.382812 -2.050781 L 0.796875 -2.050781 C 0.855469 -1.878906 0.949219 -1.6875 1.082031 -1.472656 C 1.214844 -1.257812 1.367188 -1.066406 1.539062 -0.894531 C 1.714844 -0.722656 1.921875 -0.578125 2.152344 -0.460938 C 2.378906 -0.34375 2.625 -0.285156 2.886719 -0.285156 C 3.234375 -0.285156 3.492188 -0.351562 3.660156 -0.488281 C 3.828125 -0.621094 3.914062 -0.828125 3.914062 -1.109375 C 3.914062 -1.261719 3.875 -1.386719 3.800781 -1.488281 C 3.722656 -1.585938 3.621094 -1.671875 3.484375 -1.742188 C 3.339844 -1.820312 3.175781 -1.882812 3 -1.9375 C 2.824219 -1.988281 2.605469 -2.054688 2.347656 -2.128906 C 2.089844 -2.207031 1.867188 -2.285156 1.683594 -2.359375 C 1.5 -2.4375 1.308594 -2.5625 1.109375 -2.730469 C 0.941406 -2.875 0.804688 -3.054688 0.699219 -3.265625 C 0.597656 -3.472656 0.546875 -3.722656 0.546875 -4.011719 C 0.546875 -4.546875 0.773438 -4.980469 1.222656 -5.308594 C 1.671875 -5.640625 2.261719 -5.804688 2.992188 -5.804688 C 3.335938 -5.804688 3.65625 -5.769531 3.945312 -5.699219 C 4.234375 -5.628906 4.480469 -5.550781 4.675781 -5.46875 L 4.796875 -5.804688 L 5.230469 -5.804688 L 5.320312 -3.863281 L 4.921875 -3.863281 C 4.789062 -4.257812 4.5625 -4.597656 4.238281 -4.886719 C 3.914062 -5.171875 3.566406 -5.316406 3.195312 -5.316406 C 2.902344 -5.316406 2.671875 -5.253906 2.507812 -5.132812 C 2.339844 -5.011719 2.253906 -4.84375 2.257812 -4.625 C 2.253906 -4.335938 2.378906 -4.128906 2.621094 -4 C 2.867188 -3.871094 3.210938 -3.75 3.648438 -3.632812 C 4.328125 -3.460938 4.824219 -3.222656 5.140625 -2.917969 C 5.453125 -2.617188 5.609375 -2.234375 5.609375 -1.765625 C 5.609375 -1.144531 5.367188 -0.660156 4.878906 -0.320312 C 4.390625 0.0234375 3.753906 0.195312 2.96875 0.195312 Z "/>
</g>
</g>
</defs>
<g fill="rgb(78.823529%, 65.882353%, 29.803922%)" fill-opacity="1">
<use xlink:href="#glyph-0-0" x="30" y="30.697266"/>
<use xlink:href="#glyph-0-1" x="38" y="30.697266"/>
<use xlink:href="#glyph-0-2" x="46" y="30.697266"/>
<use xlink:href="#glyph-0-3" x="53" y="30.697266"/>
<use xlink:href="#glyph-0-4" x="59" y="30.697266"/>
<use xlink:href="#glyph-0-5" x="66" y="30.697266"/>
<use xlink:href="#glyph-0-6" x="69" y="30.697266"/>
<use xlink:href="#glyph-0-7" x="77" y="30.697266"/>
<use xlink:href="#glyph-0-8" x="85" y="30.697266"/>
<use xlink:href="#glyph-0-9" x="93" y="30.697266"/>
<use xlink:href="#glyph-0-10" x="100" y="30.697266"/>
<use xlink:href="#glyph-0-11" x="105" y="30.697266"/>
<use xlink:href="#glyph-0-2" x="109" y="30.697266"/>
<use xlink:href="#glyph-0-12" x="116" y="30.697266"/>
<use xlink:href="#glyph-0-13" x="124" y="30.697266"/>
</g>
</svg>
